<!DOCTYPE svg PUBLIC "-//W3C//DTD SVG 1.1//EN" "http://www.w3.org/Graphics/SVG/1.1/DTD/svg11.dtd">

<!-- Uploaded to: SVG Repo, www.svgrepo.com, Transformed by: SVG Repo Mixer Tools -->
<svg height="16px" width="16px" version="1.1" id="_x32_" xmlns="http://www.w3.org/2000/svg" xmlns:xlink="http://www.w3.org/1999/xlink" viewBox="0 0 512 512" xml:space="preserve" fill="#000000" stroke="#000000" stroke-width="0.00512" transform="rotate(0)">

<g id="SVGRepo_bgCarrier" stroke-width="0"/>

<g id="SVGRepo_tracerCarrier" stroke-linecap="round" stroke-linejoin="round"/>

<g id="SVGRepo_iconCarrier"> <style type="text/css"> .st0{fill:#000000;} </style> <g> <path class="st0" d="M91.879,212.062c0.797,0.242,1.602,0.398,2.398,0.398c3.438,0,6.563-2.156,7.602-5.602 c1.36-4.234-0.961-8.718-5.117-10.078c-4.242-1.281-8.726,1.039-10.086,5.203C85.316,206.219,87.637,210.703,91.879,212.062z"/> <path class="st0" d="M155.394,127.266c1.68,0,3.367-0.562,4.805-1.602h-0.078c3.594-2.562,4.32-7.602,1.758-11.125 c-2.64-3.594-7.68-4.32-11.203-1.758c-3.601,2.641-4.32,7.602-1.68,11.203C150.52,126.141,152.996,127.266,155.394,127.266z"/> <path class="st0" d="M254.918,94.219c0.078,0,0.078,0,0.078,0c4.398,0,8-3.594,7.922-8c0-4.477-3.602-8-8-8 c-4.476,0.086-8,3.68-8,8.086C246.996,90.703,250.52,94.219,254.918,94.219z"/> <path class="st0" d="M354.84,126.062c2.476,0,4.961-1.203,6.476-3.359c2.641-3.602,1.758-8.562-1.836-11.117 c-3.602-2.641-8.562-1.766-11.125,1.836c-2.555,3.602-1.758,8.562,1.844,11.117C351.637,125.586,353.238,126.062,354.84,126.062z"/> <path class="st0" d="M92.356,301.664c-4.234,1.36-6.477,5.922-5.039,10.078c-0.078,0-0.078,0-0.078,0 c1.117,3.36,4.242,5.524,7.68,5.524c0.797,0,1.602-0.086,2.476-0.406c4.164-1.359,6.484-5.914,5.047-10.078 C101.074,302.539,96.52,300.305,92.356,301.664z"/> <path class="st0" d="M150.356,389.102c-2.555,3.602-1.758,8.562,1.844,11.203c1.438,0.961,3.039,1.437,4.641,1.437 c2.476,0,4.961-1.117,6.554-3.281c2.563-3.602,1.766-8.64-1.836-11.195C157.957,384.703,152.918,385.5,150.356,389.102z"/> <path class="st0" d="M420.035,300.219c-4.234-1.36-8.719,0.961-10.078,5.203c-1.36,4.164,0.961,8.719,5.203,10 c0.797,0.32,1.602,0.398,2.477,0.398c3.359,0,6.484-2.156,7.602-5.516C426.598,306.062,424.199,301.586,420.035,300.219z"/> <path class="st0" d="M417.238,211.024c0.797,0,1.602-0.164,2.476-0.398c4.164-1.446,6.484-5.922,5.125-10.164 c-0.078-0.156-0.164-0.32-0.242-0.476v-0.086c-1.359-4.156-5.922-6.398-10.078-5.039c-4.242,1.36-6.484,5.922-5.125,10.086 c0.086,0.156,0.164,0.32,0.164,0.477c0.078,0,0.078,0,0.078,0.078C410.676,208.859,413.879,211.024,417.238,211.024z"/> <path class="st0" d="M351.637,386.461c-3.602,2.641-4.398,7.602-1.758,11.203c1.516,2.078,4,3.281,6.477,3.281 c1.602,0,3.281-0.562,4.64-1.602c3.602-2.562,4.398-7.602,1.766-11.125C360.121,384.625,355.16,383.82,351.637,386.461z"/> <path class="st0" d="M256.676,417.742c-4.398,0-8,3.602-7.914,8.078c0,4.398,3.594,7.922,8,7.922c4.398,0,8-3.601,8-8 C264.676,421.266,261.074,417.742,256.676,417.742z"/> <path class="st0" d="M256,0C114.84,0,0,114.844,0,256c0,141.164,114.84,256,256,256s256-114.836,256-256 C512,114.844,397.16,0,256,0z M256,451.047c-107.547,0-195.047-87.492-195.047-195.047c0-107.547,87.5-195.047,195.047-195.047 S451.047,148.453,451.047,256C451.047,363.555,363.547,451.047,256,451.047z"/> <polygon class="st0" points="276.836,130.672 235.008,130.672 235.008,248.422 235.008,269.336 235.008,290.25 373.676,290.25 373.676,248.422 276.836,248.422 "/> </g> </g>

</svg>